<svg xmlns="http://www.w3.org/2000/svg" viewBox="0 0 271.34 271.52"><defs><style>.cls-1{fill:#f39200;}</style></defs><g id="Calque_2" data-name="Calque 2"><g id="Calque_1-2" data-name="Calque 1"><path class="cls-1" d="M0,135.47C-.44,62.51,59.34-.46,136.66,0a135.76,135.76,0,0,1,.71,271.51C60.53,272.44-.66,209.88,0,135.47ZM163.75,85.64a18.58,18.58,0,0,0-2.3-9.64c-2.19-4-5.65-6.6-9.61-8.67q-7.23-3.77-14.4-7.64-16.57-8.94-33.12-17.93a10.72,10.72,0,0,0-8-.68A40.59,40.59,0,0,0,72.06,58.64a55.42,55.42,0,0,0-7.53,18.93A24.59,24.59,0,0,0,64.29,88c1.41,6.49,5.6,10.85,11.21,13.83,9,4.78,18.12,9.25,27.15,13.93,6.5,3.37,12.89,7,19.44,10.25a16.55,16.55,0,0,0,14.06.43,43.6,43.6,0,0,0,17.21-12.85C160.07,105.45,163.12,96,163.75,85.64Zm18.93,149.68c-2-5.28-3.88-10.42-5.82-15.53q-6.27-16.56-12.57-33.11c-2.8-7.4-5.54-14.83-8.34-22.24a10.87,10.87,0,0,1-.64-7.15c.37-1.29.67-2.6.91-3.92a16.39,16.39,0,0,0-7.38-16.48A16.81,16.81,0,0,0,128,139.25a15,15,0,0,0-4.69,13,29.06,29.06,0,0,0,2.28,7.19,7.51,7.51,0,0,1,.26,6q-1.43,3.54-2.78,7.09l-10.25,27.12q-5.09,13.48-10.19,27c-1.05,2.78-2.07,5.57-3.13,8.45.56.26,1,.5,1.45.67,3.4,1.29,6.83,2.49,10.19,3.89,1.35.57,1.84.15,2.27-1,1.14-3.14,2.32-6.26,3.5-9.38q7.3-19.2,14.61-38.4c.58-1.54,1.21-3.06,1.82-4.59l.58.07a17.28,17.28,0,0,1,.19,1.89q0,24.4,0,48.79c0,1.42.36,1.91,1.83,1.87,3.4-.1,6.8,0,10.21,0,2.65,0,2.47.43,2.47-2.49q0-23.57,0-47.13a16.45,16.45,0,0,1,.19-1.72,2.27,2.27,0,0,1,.89,1.18q2.55,6.69,5.1,13.4,5.26,13.74,10.54,27.48c1.26,3.3,2.52,6.6,3.81,9.9.27.69.54,1.49,1.59,1Zm-32.2-106.7c.39.28.61.48.86.62,5.75,3.18,11.47,6.43,17.3,9.46a6.86,6.86,0,0,0,4.42.6,27.34,27.34,0,0,0,13.12-7.38c6.43-6.56,8.39-14.75,8.29-23.65,0-2.43-.79-4.28-3-5.53-5-2.75-9.86-5.62-14.79-8.43-1.49-.85-3-1.68-4.69-2.62C167.69,105.8,162.31,119.06,150.48,128.62Zm53.63-11.22a69.72,69.72,0,0,1-14.92,24.9c3,1.48,5.5,2.76,8,4a6.36,6.36,0,0,0,6-.11,22.21,22.21,0,0,0,2.38-1.22c6.25-4.29,9.35-10.18,8.77-17.83A5.22,5.22,0,0,0,212.3,123C209.73,121.23,207.14,119.47,204.11,117.4Z"/><path class="cls-1" d="M72.68,80.62c.65-10.46,4.93-18.9,14-24.44A25.4,25.4,0,0,1,94.08,53C99.54,51.77,104,55,105,60.49c1,5.08-.22,9.83-2.45,14.32A32.61,32.61,0,0,1,90.75,88.25,16.25,16.25,0,0,1,81.44,91a8.79,8.79,0,0,1-8.76-8.44C72.65,81.92,72.68,81.27,72.68,80.62Z"/></g></g></svg>