<?xml version="1.0" encoding="UTF-8" standalone="no"?>
<svg
   version="1.1"
   viewBox="0 0 588 592"
   id="svg39"
   sodipodi:docname="office.svg"
   inkscape:version="1.2.2 (b0a84865, 2022-12-01)"
   xmlns:inkscape="http://www.inkscape.org/namespaces/inkscape"
   xmlns:sodipodi="http://sodipodi.sourceforge.net/DTD/sodipodi-0.dtd"
   xmlns="http://www.w3.org/2000/svg"
   xmlns:svg="http://www.w3.org/2000/svg">
  <defs
     id="defs43" />
  <sodipodi:namedview
     id="namedview41"
     pagecolor="#ffffff"
     bordercolor="#000000"
     borderopacity="0.25"
     inkscape:showpageshadow="2"
     inkscape:pageopacity="0.0"
     inkscape:pagecheckerboard="0"
     inkscape:deskcolor="#d1d1d1"
     showgrid="false"
     inkscape:zoom="0.80257662"
     inkscape:cx="337.66246"
     inkscape:cy="239.85249"
     inkscape:window-width="1432"
     inkscape:window-height="759"
     inkscape:window-x="-65"
     inkscape:window-y="38"
     inkscape:window-maximized="0"
     inkscape:current-layer="svg39" />
  <clipPath
     id="clipping-path-0">
    <path
       d="   M 0.00 0.00   L 588.00 0.00   L 588.00 592.00   L 0.00 592.00   L 0.00 0.00   Z"
       id="path2" />
  </clipPath>
  <path
     fill="#5b3b1a"
     d="m 367.79611,130.22372 q -11.61,-7.48 -25.54,-11.23 -7.72,-2.08 -10.58,-2.6 -33.34,-6.08 -68.98,-2.09 -22.25,2.49 -40.85,11.49 -27.04,13.06999 -36.59,42.56999 -2.85,8.81 -3.71,17.03 -0.44,4.19 -0.44,17.33 0,9.27 0.4,18.53 0.4,9.08 2.05,18.37 7.02,39.46 19.8,77.5 3.6,10.69 6.94,21.46 a 0.57,0.59 68.2 0 1 -0.31,0.69 q -11.43,5.44 -23.61,8.95 -0.08,0.03 -2.65,1.02 -3.18,1.23 -4.12,-2.1 -0.54,-1.89 -0.58,-2.02 -14.66,-40.48 -23.78,-82.52 -2.44,-11.22 -3.69,-19.67 -3.91,-26.27 -2.67,-51.69 0.34,-7 1.59,-15.3 1.25,-8.28 3.24,-15.01 12.28,-41.40999 49.61,-62.08 8.12,-4.5 18.24,-8.15 22.31,-8.08 45.13,-9.4 23.05,-1.34 51,0.25 4.12,0.23 15.29,2.03 32.09,5.14 57.15,22.78 14.54,10.24001 25.25,27 10.53,16.48 14.7,37.07 1.75,8.62 2.35,19.84 1.79,33.76 -5.74,69.53 -9.54,45.28 -25.57,88.7 a 1.59,1.58 17.8 0 1 -1.92,0.98 q -14.38,-3.98 -27.89,-10.1 a 0.69,0.69 0 0 1 -0.37,-0.85 q 7.23,-21.06 13.59,-42.2 10.6,-35.21 14.41,-64.03 2.26,-17.08 1.34,-38.27 -0.53,-12.29 -2.33,-19.83 -4.12,-17.19 -15.27,-30.77 -6.32,-7.69 -14.89,-13.20999 z"
     id="path21-1"
     style="opacity:0.5;fill:#808080;fill-opacity:1" />
  <path
     fill="#5b3b1a"
     d="m 433.83926,442.33524 q -1.74,-0.37 -2.98,1.31 -0.68,0.92 -0.06,1.23 -2.66,28.29 -2.27,56.71 0.1,6.92 -0.95,13.57 a 1.11,1.11 0 0 1 -1.01,0.93 q -14,1.03 -29.11,0.73 a 0.93,0.93 0 0 1 -0.91,-0.93 q -0.08,-16.05 0.25,-32.55 0.37,-18.43 0.04,-26.75 0.92,-0.89 0.46,-3.88 a 0.73,0.73 0 0 0 -0.7,-0.62 q -2.08,-0.05 -0.59,0.75 -2.34,-0.12 -5.71,0.5 -38.57,7.14 -82.25,7.75 -34.41,0.48 -58.75,-0.96 -32.02,-1.9 -63.95,-8.13 a 0.76,0.75 3.2 0 0 -0.9,0.8 q 1.26,16.27 1.3,31.29 0.05,15.66 -0.13,31.32 a 0.54,0.55 88.2 0 1 -0.51,0.53 q -14.02,0.87 -28.17,0.4 -2.01,-0.07 -2.28,-2.07 -1.02,-7.52 -1.06,-16.18 -0.03,-5.99 -1.05,-35.75 -0.46,-13.43 -1.12,-18.82 a 0.93,0.9 9.9 0 0 -0.52,-0.71 q -2.53,-1.22 -5.17,-2.18 -17.18,-6.25 -32.92,-15.52 -15.97,-9.41 -28.67,-22.88 -18.25,-19.35 -20.6,-44.39 -1.53,-16.37 6.42,-30.44 5.17,-9.13 13.19,-14.78 14.15,-9.98 31.78,-6.46 8.1,1.61 15.46,6.11 7.13,4.35 13.09,10.63 8.38,8.83 14.02,18.99 6.44,11.61 10.71,24.19 8.47,24.94 12.31,50.9 a 1.63,1.66 2 0 0 1.25,1.36 q 26.97,6.23 54.52,8.75 9.67,0.89 32.5,1.54 -0.08,0.43 0.25,0.45 20.24,1.02 40.5,0.26 3.21,-0.12 4.75,-0.71 9.37,-0.47 18.74,-0.91 34.34,-1.63 67.71,-9.82 a 0.81,0.81 0 0 0 0.6,-0.61 q 1.25,-5.44 2.13,-10.96 5.38,-33.65 21.44,-63.65 6.82,-12.74 17.16,-22.81 6.31,-6.16 14.06,-9.93 7.91,-3.84 16.29,-4.57 11.59,-1.02 21.84,3.97 8.75,4.25 15.09,12.77 8.58,11.51 10.02,25.99 0.95,9.55 -1.5,19.84 -4.58,19.2 -19.02,34.21 -8.62,8.97 -16.37,14.63 -17.5,12.79 -37.61,20.91 -5.56,2.24 -11.04,4.65 z m -337.83,-92.5 q -0.74,3.23 -0.17,6.5 -0.38,0.58 -0.04,2 2.23,9.37 6.71,15.75 12.5,16.69 31.04,26.29 5.3,3.75 11.52,5.57 a 1.08,0.73 27.1 0 0 0.92,-0.11 q 0.44,-0.37 -0.44,-0.79 l -2.04,-8.46 q 0.39,-0.44 0.26,-0.99 -4.64,-20.02 -14.41,-38.07 -5.09,-9.43 -13.76,-16.86 -0.5,-0.43 -1.36,-0.8 -0.74,-0.32 -1.42,-0.78 -6.17,-4.19 -12.08,0.19 -3.75,2.77 -4.87,8.89 -0.03,0.19 -0.3,0.78 -0.28,0.6 0.44,0.89 z m 385.06,-10.75 q -5.69,-3.84 -11.44,0.03 -5.25,3.54 -8.89,8.16 -10.32,13.06 -16.06,29.23 -4.94,13.91 -8.13,28.35 -0.25,1.12 0.82,0.7 21.68,-8.33 37.83,-25.07 9.62,-9.97 11.85,-21.4 1.57,-8.04 -1.97,-15.36 -1.38,-2.87 -4.01,-4.64 z"
     id="path23-0"
     style="opacity:0.5;fill:#808080;fill-opacity:1" />
  <path
     fill="#5b3b1a"
     d="m 433.54199,433.18861 q -1.74,-0.37 -2.98,1.31 -0.68,0.92 -0.06,1.23 -2.66,28.29 -2.27,56.71 0.1,6.92 -0.95,13.57 a 1.11,1.11 0 0 1 -1.01,0.93 q -14,1.03 -29.11,0.73 a 0.93,0.93 0 0 1 -0.91,-0.93 q -0.08,-16.05 0.25,-32.55 0.37,-18.43 0.04,-26.75 0.92,-0.89 0.46,-3.88 a 0.73,0.73 0 0 0 -0.7,-0.62 q -2.08,-0.05 -0.59,0.75 -2.34,-0.12 -5.71,0.5 -38.57,7.14 -82.25,7.75 -34.41,0.48 -58.75,-0.96 -32.02,-1.9 -63.95,-8.13 a 0.76,0.75 3.2 0 0 -0.9,0.8 q 1.26,16.27 1.3,31.29 0.05,15.66 -0.13,31.32 a 0.54,0.55 88.2 0 1 -0.51,0.53 q -14.02,0.87 -28.17,0.4 -2.01,-0.07 -2.28,-2.07 -1.02,-7.52 -1.06,-16.18 -0.03,-5.99 -1.05,-35.75 -0.46,-13.43 -1.12,-18.82 a 0.93,0.9 9.9 0 0 -0.52,-0.71 q -2.53,-1.22 -5.17,-2.18 -17.18,-6.25 -32.92,-15.52 -15.970001,-9.41 -28.670001,-22.88 -18.25,-19.35 -20.6,-44.39 -1.53,-16.37 6.42,-30.44 5.17,-9.13 13.19,-14.78 14.15,-9.98 31.780001,-6.46 8.1,1.61 15.46,6.11 7.13,4.35 13.09,10.63 8.38,8.83 14.02,18.99 6.44,11.61 10.71,24.19 8.47,24.94 12.31,50.9 a 1.63,1.66 2 0 0 1.25,1.36 q 26.97,6.23 54.52,8.75 9.67,0.89 32.5,1.54 -0.08,0.43 0.25,0.45 20.24,1.02 40.5,0.26 3.21,-0.12 4.75,-0.71 9.37,-0.47 18.74,-0.91 34.34,-1.63 67.71,-9.82 a 0.81,0.81 0 0 0 0.6,-0.61 q 1.25,-5.44 2.13,-10.96 5.38,-33.65 21.44,-63.65 6.82,-12.74 17.16,-22.81 6.31,-6.16 14.06,-9.93 7.91,-3.84 16.29,-4.57 11.59,-1.02 21.84,3.97 8.75,4.25 15.09,12.77 8.58,11.51 10.02,25.99 0.95,9.55 -1.5,19.84 -4.58,19.2 -19.02,34.21 -8.62,8.97 -16.37,14.63 -17.5,12.79 -37.61,20.91 -5.56,2.24 -11.04,4.65 z m -337.830001,-92.5 q -0.74,3.23 -0.17,6.5 -0.38,0.58 -0.04,2 2.23,9.37 6.710001,15.75 12.5,16.69 31.04,26.29 5.3,3.75 11.52,5.57 a 1.08,0.73 27.1 0 0 0.92,-0.11 q 0.44,-0.37 -0.44,-0.79 l -2.04,-8.46 q 0.39,-0.44 0.26,-0.99 -4.64,-20.02 -14.41,-38.07 -5.09,-9.43 -13.76,-16.86 -0.5,-0.43 -1.36,-0.8 -0.74,-0.32 -1.42,-0.78 -6.17,-4.19 -12.08,0.19 -3.750001,2.77 -4.870001,8.89 -0.03,0.19 -0.3,0.78 -0.28,0.6 0.44,0.89 z m 385.060001,-10.75 q -5.69,-3.84 -11.44,0.03 -5.25,3.54 -8.89,8.16 -10.32,13.06 -16.06,29.23 -4.94,13.91 -8.13,28.35 -0.25,1.12 0.82,0.7 21.68,-8.33 37.83,-25.07 9.62,-9.97 11.85,-21.4 1.57,-8.04 -1.97,-15.36 -1.38,-2.87 -4.01,-4.64 z"
     id="path23"
     style="fill:#f19325;fill-opacity:1" />
  <path
     fill="#5b3b1a"
     d="m 367.42735,119.92437 q -11.61,-7.48 -25.54,-11.23 -7.72,-2.08 -10.58,-2.6 -33.34,-6.08 -68.98,-2.09 -22.25,2.49 -40.85,11.49 -27.04,13.06999 -36.59,42.56999 -2.85,8.81 -3.71,17.03 -0.44,4.19 -0.44,17.33 0,9.27 0.4,18.53 0.4,9.08 2.05,18.37 7.02,39.46 19.8,77.5 3.6,10.69 6.94,21.46 a 0.57,0.59 68.2 0 1 -0.31,0.69 q -11.43,5.44 -23.61,8.95 -0.08,0.03 -2.65,1.02 -3.18,1.23 -4.12,-2.1 -0.54,-1.89 -0.58,-2.02 -14.66,-40.48 -23.78,-82.52 -2.44,-11.22 -3.69,-19.67 -3.91,-26.27 -2.67,-51.69 0.34,-7 1.59,-15.3 1.25,-8.28 3.24,-15.01 12.28,-41.40999 49.61,-62.079993 8.12,-4.5 18.24,-8.15 22.31,-8.08 45.13,-9.4 23.05,-1.34 51,0.25 4.12,0.23 15.29,2.03 32.09,5.14 57.15,22.78 14.54,10.240003 25.25,26.999993 10.53,16.48 14.7,37.07 1.75,8.62 2.35,19.84 1.79,33.76 -5.74,69.53 -9.54,45.28 -25.57,88.7 a 1.59,1.58 17.8 0 1 -1.92,0.98 q -14.38,-3.98 -27.89,-10.1 a 0.69,0.69 0 0 1 -0.37,-0.85 q 7.23,-21.06 13.59,-42.2 10.6,-35.21 14.41,-64.03 2.26,-17.08 1.34,-38.27 -0.53,-12.29 -2.33,-19.83 -4.12,-17.19 -15.27,-30.77 -6.32,-7.69 -14.89,-13.20999 z"
     id="path21"
     style="fill:#f19325;fill-opacity:1" />
</svg>
