<svg xmlns="http://www.w3.org/2000/svg" viewBox="0 0 241.57 289.81"><defs><style>.cls-1{fill:#f39200;}</style></defs><g id="Calque_2" data-name="Calque 2"><g id="Calque_1-2" data-name="Calque 1"><path d="M77.89,252.76c-.49,1.32-.91,2.45-1.31,3.59l-9.84,28.27c-1.37,3.9-3.69,5.74-6.32,5.05s-3.67-3.54-2.71-7.57c2.84-11.89,5.67-23.79,8.64-35.65.46-1.86,0-2.83-1.39-4m0,0C43.6,223.79,26,202.19,13.6,176.57c-7.5-15.49-12.55-31.71-13.42-49-1.56-30.8,7-58.57,26.54-82.39C53.47,12.51,88.48-3.19,130.52.54c47.18,4.19,81.22,29.05,100.6,72.21,20.51,45.68,10.12,98.52-25,133.86-3.53,3.57-7.8,6.45-11.92,9.37-1.82,1.3-4.36,2.84-6.35.74-1.85-1.94-.07-4.21,1.14-5.85a119.41,119.41,0,0,1,9.65-12c21-22,31.78-48.11,31.7-78.48A110.06,110.06,0,0,0,141.54,12.88C81.64,1,22.91,41.69,12.53,101.82c-3.66,21.23-.59,41.42,7.57,61C32.47,192.58,50.88,217.93,76,238.25c11,8.92,23.11,16,37,19.6a45.87,45.87,0,0,0,17.06,1.5c12.4-1.46,18.78-10.18,16.44-22.46-1.62-8.47-5.79-15.73-10.9-22.48C126.4,202.34,115,192.73,102.71,184a5.19,5.19,0,0,0-1-.38c-6.11,17.62-12.15,35.05-18.38,53-3.09-2.57-5.79-5.11-8.79-7.23s-3.22-4.23-2.39-7.6Q88,157.1,103.54,92.33c.17-.71.28-1.43.44-2.27a5.81,5.81,0,0,0-1.25-.39C90.75,89,79.33,90.85,69,97.3a28.39,28.39,0,0,0-10.8,11.49c-3.79,7.67-2.68,15.22.88,22.58,4.45,9.2,11.43,16.34,19.34,22.54,2.53,2,3.2,3.76,2.13,6.68a61.77,61.77,0,0,0-1.73,6.91c-.39,0-.59.07-.7,0C67.52,159.92,58,151.28,51.33,140c-12.87-21.88-5.87-44.21,17.3-55,18-8.36,36.39-8.13,55-2.28l2.66.84c1-4.61,1.71-9,.59-13.44-.56-2.24-2.27-2.73-3.93-1.1a26.56,26.56,0,0,0-3.74,4.93,2,2,0,0,1-2.6,1.11c-2.22-.58-4.5-.92-7.1-1.43,2.95-5.6,6.27-10.42,11.69-13.3,5-2.67,9.89-.87,12.36,4.5,2.94,6.39,3,13.17,1.56,19.82a168.54,168.54,0,0,1-5.34,17.9q-11.64,34-23.54,67.88c-.64,1.81-.19,2.61,1.26,3.63,12.53,8.75,24.21,18.47,33.93,30.35,7.35,9,13.39,18.66,15.73,30.24,3.54,17.56-5.42,31.52-22.9,35a48.17,48.17,0,0,1-13.88.59c-14.89-1.4-27.87-7.88-40.15-16-.68-.45-1.38-.88-2.34-1.5M113.14,91c-1,4.52-1.56,8.52-.78,12.56a4,4,0,0,0,1.88,2.62c.65.28,2-.48,2.73-1.15,3-3,4.53-6.8,6.28-10.93Z"/><path d="M140.63,90.37c3.08,2.37,6,4.27,8.55,6.64,20.58,19.38,32.39,43.27,36,71.22.39,3.05-.19,6.28-.67,9.38a7,7,0,0,1-2,3.6c-2.15,2.16-4.77,1.44-5.32-1.5-.71-3.75-1-7.58-1.57-11.35-3.54-22.86-12.07-43.31-29.15-59.52-2.52-2.4-5.44-4.37-8.09-6.63-.57-.49-1.23-1.54-1.06-2.1C138.21,97,139.36,94,140.63,90.37Z"/><path class="cls-1" d="M116.32,81.18h0Z"/><path class="cls-1" d="M58.07,287.87a3.94,3.94,0,0,0,2.35,1.76c.9.15,4.32.66,6.32-5.05l9.84-28.27c.4-1.14.82-2.26,1.31-3.59l-11.49-8.3C64.14,251.68,54.59,282.83,58.07,287.87Z"/><path class="cls-1" d="M133.56,64.76c-2.47-5.37-7.34-7.17-12.36-4.5-5.42,2.89-8.74,7.7-11.69,13.31,2.6.5,4.88.84,7.1,1.42a2,2,0,0,0,2.6-1.1A26.63,26.63,0,0,1,123,69c1.66-1.63,3.37-1.14,3.93,1.11,1.12,4.44.4,8.82-.59,13.43l-3,10.58C121.5,98.2,120,102,117,105c-.69.68-2.08,1.43-2.73,1.16a4,4,0,0,1-1.88-2.63c-.78-4-.26-8,.76-12.48a68.38,68.38,0,0,0-9.2-1.59c0,.33,0,.54.06.56-.16.84-.27,1.56-.44,2.27Q87.9,157,72.17,221.76c-.83,3.37-.49,5.56,2.39,7.6s5.7,4.66,8.79,7.23c6.23-18,12.27-35.38,18.38-53l28.05-81.11a167.84,167.84,0,0,0,5.34-17.9C136.6,77.93,136.5,71.15,133.56,64.76Z"/></g></g></svg>