<?xml version="1.0" standalone="no"?>
<!DOCTYPE svg PUBLIC "-//W3C//DTD SVG 20010904//EN"
 "http://www.w3.org/TR/2001/REC-SVG-20010904/DTD/svg10.dtd">
<svg version="1.0" xmlns="http://www.w3.org/2000/svg"
 width="704.000000pt" height="704.000000pt" viewBox="0 0 704.000000 704.000000"
 preserveAspectRatio="xMidYMid meet">
<metadata>
Created by potrace 1.14, written by Peter Selinger 2001-2017
</metadata>
<g transform="translate(0.000000,704.000000) scale(0.100000,-0.100000)"
fill="#3d4449" stroke="none">
<path d="M2240 6880 l0 -160 -160 0 -160 0 0 -160 0 -160 320 0 320 0 0 -160
0 -160 -160 0 -160 0 0 -160 0 -160 -160 0 -160 0 0 -960 0 -960 160 0 160 0
0 -160 0 -160 320 0 320 0 0 -320 0 -320 -160 0 -160 0 0 -160 0 -160 -160 0
-160 0 0 -160 0 -160 -320 0 -320 0 0 160 0 160 160 0 160 0 0 160 0 160 160
0 160 0 0 160 0 160 -160 0 -160 0 0 160 0 160 -160 0 -160 0 0 160 0 160
-480 0 -480 0 0 -160 0 -160 -160 0 -160 0 0 -160 0 -160 -160 0 -160 0 0
-480 0 -480 160 0 160 0 0 -320 0 -320 160 0 160 0 0 -160 0 -160 320 0 320 0
0 -160 0 -160 320 0 320 0 0 -160 0 -160 480 0 480 0 0 -160 0 -160 160 0 160
0 0 -160 0 -160 1440 0 1440 0 0 160 0 160 160 0 160 0 0 160 0 160 160 0 160
0 0 160 0 160 160 0 160 0 0 640 0 640 -320 0 -320 0 0 160 0 160 -160 0 -160
0 0 160 0 160 160 0 160 0 0 160 0 160 160 0 160 0 0 160 0 160 160 0 160 0 0
480 0 480 -160 0 -160 0 0 160 0 160 -160 0 -160 0 0 160 0 160 -160 0 -160 0
0 480 0 480 -160 0 -160 0 0 160 0 160 -160 0 -160 0 0 160 0 160 -1280 0
-1280 0 0 -160 0 -160 -160 0 -160 0 0 320 0 320 -160 0 -160 0 0 -160z m2560
-960 l0 -160 160 0 160 0 0 160 0 160 320 0 320 0 0 -480 0 -480 160 0 160 0
0 -160 0 -160 160 0 160 0 0 -160 0 -160 160 0 160 0 0 -480 0 -480 -160 0
-160 0 0 -160 0 -160 -160 0 -160 0 0 -160 0 -160 -960 0 -960 0 0 160 0 160
-160 0 -160 0 0 160 0 160 -160 0 -160 0 0 480 0 480 -160 0 -160 0 0 320 0
320 160 0 160 0 0 320 0 320 320 0 320 0 0 160 0 160 320 0 320 0 0 -160z
m-1920 -1280 l0 -480 -320 0 -320 0 0 480 0 480 320 0 320 0 0 -480z m2240
-2560 l0 -160 160 0 160 0 0 -320 0 -320 -800 0 -800 0 0 320 0 320 160 0 160
0 0 160 0 160 480 0 480 0 0 -160z m-2240 -320 l0 -160 160 0 160 0 0 -320 0
-320 640 0 640 0 0 -320 0 -320 -640 0 -640 0 0 320 0 320 -480 0 -480 0 0
480 0 480 320 0 320 0 0 -160z m3840 -320 l0 -480 -320 0 -320 0 0 -320 0
-320 -640 0 -640 0 0 320 0 320 640 0 640 0 0 480 0 480 320 0 320 0 0 -480z"/>
<path d="M4160 5120 l0 -320 160 0 160 0 0 320 0 320 -160 0 -160 0 0 -320z"/>
<path d="M5120 5120 l0 -320 160 0 160 0 0 320 0 320 -160 0 -160 0 0 -320z"/>
<path d="M4800 4320 l0 -160 320 0 320 0 0 160 0 160 -320 0 -320 0 0 -160z"/>
<path d="M3840 4000 l0 -160 160 0 160 0 0 -160 0 -160 960 0 960 0 0 160 0
160 160 0 160 0 0 160 0 160 -160 0 -160 0 0 -160 0 -160 -960 0 -960 0 0 160
0 160 -160 0 -160 0 0 -160z"/>
<path d="M4480 1760 l0 -160 160 0 160 0 0 160 0 160 -160 0 -160 0 0 -160z"/>
</g>
</svg>
