<?xml version="1.0" encoding="utf-8"?>
<svg version="1.1" id="user" xmlns="http://www.w3.org/2000/svg" xmlns:xlink="http://www.w3.org/1999/xlink" x="0px" y="0px"
	 viewBox="0 0 512 512" style="enable-background:new 0 0 512 512;" xml:space="preserve">
<style type="text/css">
	.st0{fill:#D8DADC;}
	.st1{opacity:0.2;}
	.st2{fill:#231F20;}
	.st3{fill:#FFFFFF;}
</style>
<rect y="0" class="st0" width="511" height="511"/>
<g class="st1">
	<path class="st2" d="M268.6,325.2h-71.4c-1,0-1.8,0.2-2.2-0.7s0.3-1.8,0.9-2.4c3.7-4.2,7.4-8.5,11.1-12.6l30-34.1l0.5-0.5
		c3.9-4.5,4-4.5,8.2-0.2c3.6,3.3,7,6.9,10.1,10.6c1.9,2.6,3.4,1.5,4.8-0.6c8.5-12.2,17.2-24.5,25.9-36.7c3.1-4.3,3.4-4.4,6.4,0
		c15.8,24,31.7,48,47.5,72c0.5,0.8,1,1.6,1.4,2.4c0.8,1.7,0.2,2.8-1.7,2.8L268.6,325.2L268.6,325.2z"/>
	<path class="st2" d="M244.2,113.7c0.2-10.8,8.8-19.5,19.5-19.8c11-0.2,20.1,8.5,20.3,19.5c0.2,11-8.5,20.1-19.5,20.3
		c-11,0.2-20.1-8.5-20.3-19.5C244.2,114,244.2,113.9,244.2,113.7L244.2,113.7z"/>
	<path class="st2" d="M213.1,163.1h-7.7c-0.8,0-1.8,0.2-2.1-0.8c-0.3-1,0.5-1.3,0.9-1.8l26.8-27.6c1.2-1.2,2.4-1.9,3.6,0
		c1.9,2.8,4.2,5.3,6.8,7.5c1.2,0.7,1.6,2.3,0.9,3.5c0,0,0,0.1-0.1,0.1c-0.2,0.3-0.5,0.6-0.8,0.8l-16.3,16.3
		c-1.1,1.2-2.7,1.9-4.4,1.8L213.1,163.1L213.1,163.1z"/>
	<path class="st2" d="M314,163.1c-7.9,2.2-13.1-2.1-17.7-7.7c-3-3.7-6.3-7.2-9.8-10.4c-1.7-1.6-2.1-2.8,0-4.4
		c2.5-2.1,4.7-4.6,6.5-7.3c1.1-1.6,2.4-2,3.7-0.4c8.1,9.7,17.9,17.6,26.2,27.3c0.6,0.7,1.7,1.3,1.3,2.3c-0.4,1-1.8,0.8-2.8,0.8
		C318.9,163.2,316.5,163.1,314,163.1z"/>
	<path class="st2" d="M385.3,178.6H142.8c-5.9,0-6.1,0.2-6.1,6.1v180.7c0,6.1,0.1,6.2,6.3,6.2h242.5c5.7,0,6-0.2,6-5.9v-181
		C391.4,178.9,391.2,178.6,385.3,178.6z M363.4,336.9c0,6.3-0.3,6.5-6.5,6.5H171c-6.1,0-6.2,0-6.2-6.3V213.7c0-6.2,0.2-6.3,6.3-6.3
		h186.2c5.9,0,6.1,0.2,6.1,6.1C363.4,254.6,363.3,295.8,363.4,336.9z"/>
	<path class="st2" d="M213.2,223.6c10.3,0,18.7,8.4,18.7,18.7c-0.9,10.6-10.1,18.4-20.7,17.6c-9.2-0.8-16.6-8-17.5-17.2
		c-0.2-10.3,7.9-18.8,18.1-19C212.3,223.5,212.8,223.5,213.2,223.6z"/>
</g>
<path class="st3" d="M234.8,103.7c0.2-10.8,8.8-19.5,19.5-19.8c11-0.2,20.1,8.5,20.3,19.5c0.2,11-8.5,20.1-19.5,20.3
	c-11,0.2-20.1-8.5-20.3-19.5C234.8,104,234.8,103.9,234.8,103.7z"/>
<path class="st3" d="M203.9,153.3h-7.7c-0.8,0-1.8,0.2-2.1-0.8s0.5-1.3,0.9-1.8l26.8-27.6c1.2-1.2,2.4-1.9,3.6,0
	c1.9,2.8,4.2,5.3,6.8,7.5c1.2,0.8,1.6,2.4,0.8,3.6c-0.2,0.3-0.5,0.6-0.8,0.8l-16.4,16.4c-1.1,1.2-2.7,1.9-4.4,1.8l-7.7,0.1
	L203.9,153.3z"/>
<path class="st3" d="M304.8,153.3c-7.9,2.2-13.1-2.1-17.7-7.7c-3-3.7-6.3-7.2-9.8-10.4c-1.7-1.6-2.1-2.8,0-4.4
	c2.5-2.1,4.7-4.6,6.5-7.3c1.1-1.6,2.4-2,3.7-0.4c8.1,9.7,17.9,17.6,26.2,27.3c0.6,0.7,1.7,1.3,1.3,2.3c-0.4,1-1.8,0.8-2.8,0.8
	C309.7,153.4,307.2,153.3,304.8,153.3z"/>
<path class="st3" d="M376,168.7H133.6c-5.9,0-6.1,0.2-6.1,6.1v180.7c0,6.1,0.1,6.2,6.3,6.2h242.4c5.7,0,6-0.2,6-5.9v-181
	C382.2,168.9,382,168.7,376,168.7z M354.1,327.1c0,6.3-0.3,6.5-6.5,6.5H161.7c-6.1,0-6.2,0-6.2-6.3V203.9c0-6.2,0.2-6.3,6.3-6.3
	h186.3c5.9,0,6.1,0.2,6.1,6.1C354.1,244.8,354.1,286,354.1,327.1z"/>
<path class="st3" d="M258.8,314.6h-71.4c-1,0-1.8,0.2-2.2-0.7c-0.4-0.9,0.3-1.8,0.9-2.4c3.7-4.2,7.4-8.5,11.1-12.6l30.1-34.1
	l0.5-0.5c3.9-4.5,4-4.5,8.2-0.2c3.6,3.3,7,6.9,10.1,10.6c1.9,2.6,3.4,1.5,4.8-0.6c8.5-12.2,17.2-24.4,25.9-36.7
	c3.1-4.3,3.4-4.4,6.4,0c15.8,24,31.7,47.9,47.5,72c0.5,0.8,1,1.6,1.4,2.4c0.8,1.7,0.2,2.8-1.7,2.8H258.8z"/>
<path class="st3" d="M203.9,213.6c10.3,0,18.7,8.4,18.7,18.7c-0.9,10.6-10.1,18.4-20.7,17.5c-9.2-0.8-16.6-8-17.5-17.3
	c-0.2-10.3,7.9-18.8,18.2-19H203.9z"/>
</svg>
