<svg xmlns="http://www.w3.org/2000/svg" viewBox="0 0 1024 1024"><defs><style>.cls-1{fill:#515d73;}.cls-2{opacity:0.5;fill:#444c59;}.cls-3{fill:#fff;}</style></defs><g id="Calque_2" data-name="Calque 2"><g id="Calque_2-2" data-name="Calque 2"><rect class="cls-1" width="1024" height="1024"/></g><g id="Calque_1-2" data-name="Calque 1"><path class="cls-2" d="M309.69,311.05c-6.07,1.49-12.07,3.46-18.23,4.39-30.88,4.68-55.87-6.08-75.58-29.77a73,73,0,0,1-17-46c-.92-43.92,30.81-78.59,70.61-81.71,62.31-4.89,111.18,20.3,140.41,81.84,10.24,21.54,15.44,44.53,17.55,68.24.38,4.3.81,8.6,1,12.92s2.22,5.84,6.66,5.78c4.62-.06,4.56-2.57,4.53-5.81-.08-9.17-.32-18.35.08-27.5a19.26,19.26,0,0,0-5.81-15.2c-9.63-10.05-10.93-24-3.93-35.92,6.55-11.11,20.77-16.53,33.94-12.92,13.78,3.77,21.24,13.64,21.65,27.53a28.69,28.69,0,0,1-9.3,22.79,15.15,15.15,0,0,0-4.85,12c.19,9.33,0,18.67.08,28,.06,6,1,6.9,7,7,4,.05,8-.18,12,.07,4.6.29,6.13-1.63,6.09-6.15-.17-18.16-.07-36.33-.07-54.5,0-15.5-.06-31,0-46.5a12.34,12.34,0,0,0-4.5-10,29.69,29.69,0,0,1-7.21-34.26c5.61-12.45,17.65-19.19,31.68-17.74,12.07,1.24,23.48,11.62,25.55,24.05,1.7,10.21-.55,19.69-8.4,27-3.87,3.58-5.37,7.46-5.33,12.74.2,32.83.09,65.66.1,98.49,0,6.53.29,6.82,6.72,6.85,4.33,0,8.67-.12,13,0,3.55.13,5.34-1.32,5.34-4.9,0-11.16.29-22.34-.22-33.49-.12-2.67-2.43-5.74-4.57-7.74-9.38-8.79-12.53-22-7.63-33.81,5.14-12.4,16.16-18.82,31.36-18.27,10.82.4,21.83,9.16,25.24,20.4,3.62,11.92.81,22.45-8.1,31a13.06,13.06,0,0,0-4.41,10.52c.2,10.32.09,20.66.06,31,0,2.95.36,5.32,4.21,5.27,3.31,0,5.86.23,6.5-4.55,2.21-16.77,3.93-33.72,7.84-50.12,8.42-35.25,25.1-65.79,54.88-88a129.29,129.29,0,0,1,67.63-25.68c15.87-1.35,31.76-2.27,46.85,3.49,29.7,11.34,47.15,33.23,52.27,64.53,4.71,28.82-10.07,63.43-38.43,79.16-20.72,11.5-42.23,14.46-64.9,7-6.82-2.24-7.88-1.71-8.61,5.28a132,132,0,0,0,6.66,58.41c11.6,32.95,27.66,63.82,43.36,94.87,19.31,38.16,39.16,76.06,54.12,116.25,9.6,25.79,17.11,52.13,20.47,79.49a223.74,223.74,0,0,1,.54,51.21c-9.14,84.4-54.76,145.47-123.68,191a305.52,305.52,0,0,1-52.79,28.06c-18.21,7.4-37.68,11.94-56.86,16.63a421.64,421.64,0,0,1-74.36,10.77c-54.65,3.34-107.36-5.53-158.6-24q-93-33.48-148.29-115.55c-20.54-30.54-33.49-64.29-37.43-101.06-4.41-41.18,1.38-81.23,14.64-120.33,14.7-43.36,35.35-84,56.1-124.67,16.87-33,33.81-66.07,46.73-101,7.89-21.29,9.17-43.09,6.39-65.35A7.51,7.51,0,0,0,309.69,311.05ZM439.47,581.1q0-107.72,0-215.43c0-2.89.87-6.17-4-6.28-6.3-.14-7.3.4-8.14,5.84-.74,4.76-1.53,9.52-2.5,14.23-6.33,30.67-17.62,59.66-31.14,87.71C375,505.83,355.47,544.06,336.37,582.5c-12.17,24.48-22.63,49.62-29.62,76.14-7.88,29.91-7.23,59,6,87.57,15.74,33.95,42.31,56.72,74.23,74.25,1.63.89,4.51.44,6.45-.31,13.3-5.13,26.44-10.69,39.79-15.69,4.31-1.61,6.35-3.38,6.34-8.42Q439.34,688.57,439.47,581.1Zm145.86-1h-.14v117c0,32.83,0,65.67,0,98.5,0,4.47,1,7.28,5.78,9,13.41,4.84,26.55,10.44,39.92,15.4,2.31.86,5.73,1,7.77,0,25.38-13.82,47.31-31.68,63.26-56.13,17.75-27.21,24.35-56.86,18.92-89.06a229.52,229.52,0,0,0-18.15-59c-18.49-39.66-37.95-78.87-57.18-118.19-20.92-42.8-42-85.53-48.11-133.64-.39-3-1.91-4.59-5.32-4.61-6.71,0-6.74,0-6.73,7.76Q585.36,473.62,585.33,580.11Zm-56.93-3.48V786.05c0,1.34.05,2.67,0,4-.13,3.07,1.21,4.55,4.36,4.79,4.13.31,8.25.86,12.36,1.47,6.06.91,6.59.63,7.58-5.43a46.18,46.18,0,0,0,.75-7.4q0-207.18,0-414.36a35.39,35.39,0,0,0-.1-4.49c-.42-3.32-1.72-5.55-5.76-5.21-3.81.31-7.66.06-11.49.06-7.72,0-7.72,0-7.72,7.72Zm-57,2V788.6c0,1.5-.48,3.26.15,4.43.76,1.4,2.49,3.27,3.77,3.24,4.79-.1,9.57-1.33,14.34-1.31,5.36,0,6.09-2.56,6.09-7.15Q496,639.4,496.46,491c.09-40.82,0-81.64,0-122.45,0-1.17-.05-2.34,0-3.5.17-3.9-1.32-5.89-5.58-5.63s-8.32.06-12.49.05c-6.1,0-6.8.67-7,6.8-.05,1.33,0,2.66,0,4Zm-36.68,260c51.81,15.84,103.61,16,155.38,0C538.28,822.35,486.49,822.16,434.72,838.69Z"/><path class="cls-3" d="M307.86,289.05c-6.07,1.49-12.07,3.46-18.23,4.39-30.88,4.68-55.87-6.08-75.58-29.77a73,73,0,0,1-17.05-46c-.92-43.92,30.81-78.59,70.61-81.71,62.31-4.89,111.18,20.3,140.41,81.84,10.24,21.54,15.43,44.53,17.55,68.24.38,4.3.81,8.6,1,12.92s2.22,5.84,6.66,5.78c4.62-.06,4.56-2.57,4.53-5.81-.08-9.17-.32-18.35.08-27.5a19.26,19.26,0,0,0-5.81-15.2c-9.63-10.05-10.94-24-3.93-35.92,6.55-11.11,20.77-16.53,33.94-12.92,13.77,3.77,21.24,13.64,21.65,27.53a28.69,28.69,0,0,1-9.3,22.79,15.15,15.15,0,0,0-4.85,12c.19,9.33,0,18.67.08,28,.06,6,1,6.9,7,7,4,.05,8-.18,12,.07,4.6.29,6.13-1.63,6.09-6.15-.17-18.16-.07-36.33-.07-54.5,0-15.5-.06-31,0-46.5a12.34,12.34,0,0,0-4.5-10A29.69,29.69,0,0,1,483,153.38c5.6-12.45,17.65-19.19,31.68-17.74,12.07,1.24,23.48,11.62,25.55,24.05,1.7,10.21-.55,19.69-8.4,27-3.87,3.58-5.37,7.46-5.33,12.74.19,32.83.09,65.66.1,98.49,0,6.53.29,6.82,6.72,6.85,4.33,0,8.67-.12,13,0,3.56.13,5.35-1.32,5.35-4.9,0-11.16.29-22.34-.22-33.49-.12-2.67-2.43-5.74-4.57-7.74-9.38-8.79-12.53-22-7.63-33.81,5.13-12.4,16.16-18.82,31.36-18.27,10.81.4,21.82,9.16,25.24,20.4,3.62,11.92.81,22.45-8.1,31a13.06,13.06,0,0,0-4.41,10.52c.2,10.32.09,20.66.06,31,0,2.95.36,5.32,4.21,5.27,3.3,0,5.86.23,6.5-4.55,2.21-16.77,3.93-33.72,7.84-50.12,8.42-35.25,25.1-65.79,54.88-88a129.29,129.29,0,0,1,67.63-25.68c15.87-1.35,31.76-2.27,46.84,3.49,29.71,11.34,47.16,33.23,52.28,64.53,4.71,28.82-10.07,63.43-38.43,79.16-20.72,11.5-42.23,14.46-64.9,7-6.82-2.24-7.88-1.71-8.61,5.28a132.15,132.15,0,0,0,6.65,58.41c11.61,32.95,27.67,63.82,43.37,94.87,19.31,38.16,39.16,76.06,54.12,116.25,9.6,25.79,17.11,52.13,20.47,79.49a223.74,223.74,0,0,1,.54,51.21c-9.14,84.4-54.76,145.47-123.68,191a305.52,305.52,0,0,1-52.79,28.06c-18.21,7.4-37.68,11.94-56.87,16.63a421.53,421.53,0,0,1-74.35,10.77c-54.65,3.34-107.36-5.53-158.6-24q-93-33.48-148.29-115.55c-20.54-30.54-33.49-64.29-37.43-101.06-4.42-41.18,1.38-81.23,14.64-120.33,14.7-43.36,35.35-84,56.1-124.67,16.87-33,33.8-66.07,46.73-101,7.89-21.29,9.17-43.09,6.39-65.35A7.51,7.51,0,0,0,307.86,289.05ZM437.64,559.1q0-107.72,0-215.43c0-2.89.87-6.17-4-6.28-6.3-.14-7.3.4-8.14,5.84-.74,4.76-1.53,9.52-2.5,14.23-6.33,30.67-17.62,59.66-31.14,87.71-18.64,38.66-38.17,76.89-57.27,115.33-12.17,24.48-22.63,49.62-29.62,76.14-7.88,29.91-7.23,59,6,87.57,15.74,33.95,42.31,56.72,74.23,74.25,1.63.89,4.51.44,6.45-.31,13.3-5.13,26.44-10.69,39.79-15.69,4.31-1.61,6.35-3.38,6.34-8.42Q437.51,666.57,437.64,559.1Zm145.86-1h-.14v117c0,32.83,0,65.67-.05,98.5,0,4.47,1,7.28,5.79,9,13.41,4.84,26.55,10.44,39.92,15.4,2.31.86,5.73,1,7.77,0,25.38-13.82,47.31-31.68,63.26-56.13C717.8,714.62,724.4,685,719,652.77a229.52,229.52,0,0,0-18.15-59c-18.49-39.66-38-78.87-57.18-118.19-20.92-42.8-42-85.53-48.12-133.64-.38-3-1.9-4.59-5.31-4.61-6.71,0-6.74,0-6.73,7.76Q583.53,451.62,583.5,558.11Zm-56.93-3.48V764.05c0,1.34,0,2.67,0,4-.14,3.07,1.21,4.55,4.36,4.79,4.13.31,8.25.86,12.35,1.47,6.07.91,6.6.63,7.59-5.43a46.18,46.18,0,0,0,.75-7.4q0-207.18,0-414.36a35.39,35.39,0,0,0-.1-4.49c-.42-3.32-1.72-5.55-5.76-5.21-3.81.31-7.66.06-11.49.06-7.72,0-7.72,0-7.72,7.72Zm-57,2V766.6c0,1.5-.48,3.26.15,4.43.76,1.4,2.49,3.27,3.77,3.24,4.79-.1,9.56-1.33,14.34-1.31,5.35,0,6.09-2.56,6.09-7.15q.24-148.41.7-296.81c.09-40.82,0-81.64,0-122.45,0-1.17-.05-2.34,0-3.5.18-3.9-1.31-5.89-5.57-5.63s-8.32.06-12.49.05c-6.1,0-6.8.67-7,6.8-.05,1.33,0,2.66,0,4Zm-36.68,260c51.81,15.84,103.61,16,155.38,0C536.45,800.35,484.66,800.16,432.89,816.69Z"/></g></g></svg>