<?xml version="1.0" encoding="utf-8"?>
<svg version="1.1" id="user" xmlns="http://www.w3.org/2000/svg" xmlns:xlink="http://www.w3.org/1999/xlink" x="0px" y="0px"
	 viewBox="0 0 512 512" style="enable-background:new 0 0 512 512;" xml:space="preserve">
<style type="text/css">
	.st0{fill:#D8DADC;}
	.st1{opacity:0.2;}
	.st2{fill:#231F20;}
	.st3{fill:#FFFFFF;}
</style>
<rect x="0.5" y="0.5" class="st0" width="511" height="511"/>
<g class="st1">
	<path class="st2" d="M349.6,386c-29.9-13.4-40.9-33-44.1-51.1c22-17.3,38.6-45.6,48-75.5c9.4-12.6,15.7-25.2,15.7-36.2
		c0-7.9-2.4-12.6-7.9-17.3C359.8,142.1,315,91,259.1,90.2h-2.4c-55.9,0-100.7,50.4-103.1,113.3c-7.1,3.9-11,10.2-11,19.7
		c0,12.6,7.9,28.3,21.2,42.5c9.4,26,24.4,50.4,43.3,66.1c-3.1,18.1-13.4,39.3-44.8,53.5c-17.3,7.1-48,14.2-61.4,20.5
		c33.8,39.3,99.1,62.9,154.2,62.9h0.8c55.1,0,120.4-23.6,155-61.4C397.6,400.2,366.9,393.9,349.6,386z"/>
</g>
<path class="st3" d="M349.6,370.3c-29.9-13.4-40.9-33-44.1-51.1c22-17.3,38.6-45.6,48-75.5c9.4-12.6,15.7-25.2,15.7-36.2
	c0-7.9-2.4-12.6-7.9-17.3C359.8,126.4,315,75.3,259.1,74.5h-2.4c-55.1,0.8-99.9,51.2-103.1,114.1c-7.1,3.9-11,10.2-11,19.7
	c0,12.6,7.9,28.3,21.2,42.5c9.4,26,24.4,50.4,43.3,66.1c-3.1,18.1-13.4,39.3-44.8,53.5c-17.3,7.1-48,14.2-61.4,20.5
	c33.8,38.5,99.1,62.2,154.2,62.2h0.8c55.1,0,120.4-23.6,155-61.4C397.6,384.5,366.9,378.2,349.6,370.3z"/>
</svg>
