<svg id="Calque_1" data-name="Calque 1" xmlns="http://www.w3.org/2000/svg" viewBox="0 0 512 512"><defs><style>.cls-1{fill:#4f5d73;}.cls-2{opacity:0.4;}.cls-3{fill:#333;}.cls-4{fill:#fff;}</style></defs><rect class="cls-1" x="0.5" y="0.5" width="511" height="511"/><path d="M511,1V511H1V1H511m1-1H0V512H512V0Z"/><g class="cls-2"><path class="cls-3" d="M256,77.31a32.74,32.74,0,0,1,31.19,24.78q25.38,94.6,50.67,189.22c4.81,18-5,35.11-23.06,40-25.67,7-51.38,13.79-77.07,20.67q-48.51,13-97,26c-18.28,4.85-35.4-5.1-40.28-23.31Q75,260.05,49.76,165.44C45,147.52,55,130.28,73,125.45Q126.07,111.16,179.22,97c22.61-6,45.21-12.15,67.84-18.14C250,78.07,253,77.81,256,77.31Zm41.31,164.32c-.1-.54-.14-.82-.21-1.09q-4.23-15.75-8.46-31.5Q275.32,159.17,262,109.29c-1.26-4.69-4-6.27-8.64-5l-14.7,3.94L80.28,150.59c-4.71,1.26-6.32,4.14-5,9Q90.91,218,106.56,276.39c1.35,5,2.72,10,4.13,15.23Z"/><path class="cls-3" d="M223.94,380.79l83.87-22.44c4-1.07,8-2.13,12-3.21,9.07-2.47,12.49-4.14,22.69-11.11l37,21.3c.42-.71.83-1.36,1.21-2L447.6,247.44c3-5.15,2.2-7.83-3-10.85q-56.16-32.4-112.29-64.85a4.41,4.41,0,0,1-1.94-2.33c-3.06-11-6-22.1-9-33.16a4.31,4.31,0,0,1,0-.84c.56.26,1.05.45,1.5.71q68.13,39.3,136.25,78.62c16,9.23,21.1,28.47,11.85,44.52q-49,85-98.12,170c-9.26,16-28.45,21.19-44.47,12Q277.07,411.72,225.85,382C225.31,381.73,224.8,381.36,223.94,380.79Z"/><path class="cls-3" d="M196.44,243.33c17.42-30.17,34.68-60.07,52.21-90.45,2.08,7.75,4,14.92,5.94,22.1,1.07,4,2.19,8,3.13,12a4.56,4.56,0,0,1-.32,3q-12.24,21.45-24.64,42.79a3.51,3.51,0,0,1-1.86,1.57c-11.11,3-22.24,6-33.37,9A7.1,7.1,0,0,1,196.44,243.33Z"/></g><path class="cls-4" d="M256,63.31a32.74,32.74,0,0,1,31.19,24.78q25.38,94.6,50.67,189.22c4.81,18-5,35.11-23.06,40-25.67,7-51.38,13.79-77.07,20.67q-48.51,13-97,26c-18.28,4.85-35.4-5.1-40.28-23.31Q75,246.05,49.76,151.44C45,133.52,55,116.28,73,111.45Q126.07,97.16,179.22,83c22.61-6,45.21-12.15,67.84-18.14C250,64.07,253,63.81,256,63.31Zm41.31,164.32c-.1-.54-.14-.82-.21-1.09q-4.23-15.75-8.46-31.5Q275.32,145.17,262,95.29c-1.26-4.69-4-6.27-8.64-5l-14.7,3.94L80.28,136.59c-4.71,1.26-6.32,4.14-5,9Q90.91,204,106.56,262.39c1.35,5,2.72,10,4.13,15.23Z"/><path class="cls-4" d="M223.94,366.79l83.87-22.44c4-1.07,8-2.13,12-3.21,9.07-2.47,12.49-4.14,22.69-11.11l37,21.3c.42-.71.83-1.36,1.21-2L447.6,233.44c3-5.15,2.2-7.83-3-10.85q-56.16-32.4-112.29-64.85a4.41,4.41,0,0,1-1.94-2.33c-3.06-11-6-22.1-9-33.16a4.31,4.31,0,0,1,0-.84c.56.26,1.05.45,1.5.71q68.13,39.3,136.25,78.62c16,9.23,21.1,28.47,11.85,44.52q-49,85-98.12,170c-9.26,16-28.45,21.19-44.47,12Q277.07,397.72,225.85,368C225.31,367.73,224.8,367.36,223.94,366.79Z"/><path class="cls-4" d="M196.44,229.33c17.42-30.17,34.68-60.07,52.21-90.45,2.08,7.75,4,14.92,5.94,22.1,1.07,4,2.19,8,3.13,12a4.56,4.56,0,0,1-.32,3q-12.24,21.45-24.64,42.79a3.51,3.51,0,0,1-1.86,1.57c-11.11,3-22.24,6-33.37,9A7.1,7.1,0,0,1,196.44,229.33Z"/></svg>