<svg id="user" xmlns="http://www.w3.org/2000/svg" viewBox="0 0 512 512"><defs><style>.cls-1{fill:#4f5d73;}.cls-2{opacity:0.2;}.cls-3{fill:#231f20;}.cls-4{fill:#fff;}</style></defs><rect class="cls-1" x="0.5" y="0.5" width="511" height="511"/><path d="M511,1V511H1V1H511m1-1H0V512H512Z"/><g class="cls-2"><path class="cls-3" d="M349.62,386.05c-29.9-13.38-40.92-33.05-44.07-51.14,22-17.31,38.56-45.64,48-75.54,9.44-12.59,15.74-25.17,15.74-36.19,0-7.87-2.36-12.59-7.87-17.31C359.84,142.14,315,91,259.13,90.21h-2.36c-55.86,0-100.71,50.36-103.07,113.3-7.08,3.93-11,10.23-11,19.67,0,12.59,7.86,28.32,21.24,42.49,9.44,26,24.39,50.35,43.27,66.09-3.14,18.09-13.37,39.34-44.84,53.5-17.31,7.08-48,14.16-61.37,20.46,33.83,39.34,99.13,62.94,154.21,62.94H256c55.07,0,120.38-23.6,155-61.37C397.61,400.21,366.93,393.92,349.62,386.05Z"/></g><path class="cls-4" d="M349.62,370.31c-29.9-13.37-40.92-33-44.07-51.14,22-17.31,38.56-45.63,48-75.53,9.44-12.59,15.74-25.18,15.74-36.2,0-7.86-2.36-12.59-7.87-17.31C359.84,126.4,315,75.26,259.13,74.47h-2.36c-55.07.79-99.92,51.15-103.07,114.09-7.08,3.93-11,10.23-11,19.67,0,12.59,7.86,28.33,21.24,42.49,9.44,26,24.39,50.35,43.27,66.09-3.14,18.1-13.37,39.34-44.84,53.5-17.31,7.08-48,14.16-61.37,20.46,33.83,38.55,99.13,62.16,154.21,62.16H256c55.07,0,120.38-23.61,155-61.37C397.61,384.47,366.93,378.18,349.62,370.31Z"/></svg>