<svg id="Layer_1" data-name="Layer 1" xmlns="http://www.w3.org/2000/svg" viewBox="0 0 250.42 250.42"><defs><style>.cls-1,.cls-2{fill:#1d1d1b;}.cls-1{fill-rule:evenodd;}</style></defs><path class="cls-1" d="M8.78,202.1l8.5,19.19L18,210.6l-5.34-11.42c-2.51-5.35,2.88-10.28,7.39-12,3.83-1.49,10.09-3.15,20.31-4.72,28.42-4.38,120.75,11.17,117.1-51.27,0,0-21.38,33-93.78,20.41,0,0,35.47-19.19,52-36,0,0,2.19-4.13,11.91-1.21s20.41,7.29,26.48,5.83A114.36,114.36,0,0,0,120.3,95.44s16.52-27.94,43.49-49.57c0,0,19.68,36.69,2.91,77.26,0,0,18.71-23.08,8.27-68.51,0,0,15.79-18,16.27-9s1.22,41.3-17.25,72.65a34.22,34.22,0,0,1,24.78-6.08l-.72-6.32s-7.05-1.45-16,3.89c0,0,18.71-19.43,13.61-83.82,0,0-11.67,17-22.11,25,0,0-3.16-14.82-7-25,0,0-12,24.42-55.76,71.07,0,0,21.21,6.63,34.34,19.54,0,0-14-2.31-29.9-13.76,0,0-12.82,29.32-67.73,52.89,0,0,73.13,19.44,108.85-21.14,0,0-7.24,34.37-69.26,34.4-15.12,0-30.33.13-45.42,1.32-9.23.73-32.8,4.55-32.8,20.89V202.1Z"/><path class="cls-2" d="M206.1,159.36l18.58-33,14.91-.48-.13,1.69h-1.59a7.61,7.61,0,0,0-3.48.68,3.34,3.34,0,0,0-1.46,1.53,11.55,11.55,0,0,0-.4,4.06l.13,28.57a10.51,10.51,0,0,0,.4,3.86,3.42,3.42,0,0,0,1.63,1.48,7.19,7.19,0,0,0,3.31.64h1.59V170H217.31v-1.56h1.6a7.64,7.64,0,0,0,3.49-.69,3.36,3.36,0,0,0,1.45-1.56,10.13,10.13,0,0,0,.39-3.73l.12-27.79-19.74,35.46H203.2L183.06,135l-.49,26.17a14.78,14.78,0,0,0,.19,3.64,4.56,4.56,0,0,0,2.05,2.64c1.05.68,3.31,1,5.56,1V170H171.71v-1.56l.51.37c.88.63,2.71-.51,3.65-.85a4.89,4.89,0,0,0,2.14-1.34,4.26,4.26,0,0,0,1.13-2,29.06,29.06,0,0,0,.07-3.31l-.13-27.41a13.26,13.26,0,0,0-.39-4.17,3.5,3.5,0,0,0-1.63-1.47,7.39,7.39,0,0,0-3.31-.63h-1.56l.13-1.69,14.86.12,18.92,33.31Z"/></svg>