<svg id="Calque_1" data-name="Calque 1" xmlns="http://www.w3.org/2000/svg" viewBox="0 0 595.28 665.16"><defs><style>.cls-1{fill:#9d9d9c;}</style></defs><path class="cls-1" d="M285,112.86c0-13.43,0-26.87,0-40.3a8.93,8.93,0,0,0-3.32-7.34c-6.81-5.78-9.19-13.36-7.63-21.87,1.79-9.74,7.75-16,17.36-19,10.44-3.22,22.14,2.77,27,11a23.59,23.59,0,0,1-3.91,28.78,12.69,12.69,0,0,0-4.17,10.16c.16,26.58.08,53.16.08,79.74,0,3.65.31,4,3.94,4,4.06,0,8.12-.06,12.18,0,2.54,0,3.76-1,3.75-3.58,0-9,.17-18-.17-27-.07-2-1.63-4.33-3.19-5.74-12-10.8-11-28.75,2.21-38,6.69-4.66,20-5.85,28.51,1.21a23.93,23.93,0,0,1,7.53,26.1,23.69,23.69,0,0,1-7.06,10.4,7.48,7.48,0,0,0-2.7,6.09c.06,8.89,0,17.79,0,26.68,0,1.88-.1,3.66,2.7,3.78,4.63.19,5.21.06,5.61-3.27.74-6,1.22-12.1,2-18.12a180.47,180.47,0,0,1,7.33-32.65A134.19,134.19,0,0,1,388.82,71a106.19,106.19,0,0,1,40-35.64c18.21-9.53,37.84-12.63,58-11.63,21.13,1.05,37.62,10.86,49.33,28.66,7,10.62,11.35,22.12,10.61,34.85-1.54,26.27-13.22,46-37.89,57.27a60.7,60.7,0,0,1-31,5.42c-4.36-.38-8.64-1.81-12.95-2.79a9.61,9.61,0,0,1-1.08-.42c-4.89-1.71-6.62-.64-6.72,4.61-.14,8.09-.55,16.23.1,24.27A83.14,83.14,0,0,0,464,201.53c6.67,15.6,13.3,31.24,20.55,46.57,7.09,15,15.1,29.57,22.37,44.48,8.57,17.6,17.16,35.21,25,53.14a389.18,389.18,0,0,1,14.18,37.88,261.54,261.54,0,0,1,7.76,32,223,223,0,0,1,3.44,29.27,156.73,156.73,0,0,1-2.55,39.51,198.2,198.2,0,0,1-24.14,62.88,218.91,218.91,0,0,1-39.11,47.84c-18.67,17.33-39.86,31-62.64,42.34-13.76,6.87-28.41,10.93-43.13,14.8-11.35,3-22.79,5.86-34.36,7.74-13.21,2.13-26.58,3.33-39.92,4.48a169.73,169.73,0,0,1-23.43.52c-12.23-.62-24.53-1.27-36.6-3.13-13.39-2.06-26.63-5.22-39.81-8.42-7.85-1.9-15.42-4.93-23.17-7.23-20.82-6.14-39.37-16.85-57-29-32-22.07-57.94-49.82-75.14-85a196.25,196.25,0,0,1-14.52-41.08c-4.36-18.51-4.71-37.2-3.49-55.85,1.27-19.65,6-38.79,12.32-57.52a509.43,509.43,0,0,1,25.74-61.33c11.23-22.86,23-45.48,34.21-68.33,8.67-17.56,17-35.29,23.14-53.95a96.21,96.21,0,0,0,4.35-38c-.23-2.79-.62-5.57-.75-8.36-.11-2.29-1.1-2.42-3-1.88-4.26,1.21-8.56,2.26-12.87,3.24-8.89,2-17.75,1.13-26.29-1.44-18.52-5.58-32.22-17.18-40.6-34.65-6.32-13.16-7.49-26.9-4-41.16A61.84,61.84,0,0,1,76,34.74a60,60,0,0,1,35.23-11.28c2.32,0,4.64-.06,7,0C137.06,24,155,28,171.46,37.71,187.2,47,199.34,59.84,208.84,75.33a141.34,141.34,0,0,1,17.64,44.75c2.41,11.22,4.3,22.53,4.54,34.06,0,1.21.71,3.33,1.35,3.44a26.16,26.16,0,0,0,6.84-.12c.27,0,.58-1.34.58-2.06,0-9.28.25-18.57-.14-27.83-.09-2.31-1.68-5-3.38-6.72-4.86-5-7.71-10.81-7.68-17.59a22.45,22.45,0,0,1,10.58-19.52C249,77.23,265.22,79,272.53,89.9c5.57,8.27,5,20.45-1.53,28.38a32.34,32.34,0,0,1-2.76,3A9.73,9.73,0,0,0,265.1,129c.15,8,0,16.05.06,24.07,0,4.55.39,4.92,5,5,3.58,0,7.15,0,10.73,0s4.12-.56,4.12-4.3Q285,133.31,285,112.86Zm-45.24,247h0V190c0-6-1-6.86-6.89-5.69a4.08,4.08,0,0,0-2.46,2.29,22.39,22.39,0,0,0-1.1,5.36c-1.93,15.32-6.67,29.9-12,44.29a474.73,474.73,0,0,1-23,51.79c-9.92,19.43-19.54,39-29.31,58.5-11.51,23-22.88,46-29.51,70.95-3.91,14.7-6.61,29.42-4.69,44.84,1.89,15.11,7.4,28.69,15.19,41.49,12.37,20.35,30.62,34.22,50.91,45.81a6.33,6.33,0,0,0,6.82,0,137.66,137.66,0,0,1,32.19-12.74c2.84-.77,3.9-2.09,3.9-5Q239.7,445.86,239.74,359.88Zm115.79.94h-.12v61.76q0,54.07,0,108.15c0,5,.34,5.29,5,6.58,10.43,2.91,20.64,6.43,30,12,3.08,1.82,5.79,1.58,8.69-.1,16.17-9.35,30.86-20.51,42.58-35.24,11.33-14.23,19.08-30.19,21.82-48.22a92.48,92.48,0,0,0-2-39.07c-3.84-13.71-7.79-27.54-13.43-40.56-9.27-21.41-19.76-42.29-30.08-63.22-12.32-25-25.52-49.58-36.1-75.41-8-19.43-14.36-39.27-17-60.2a4.2,4.2,0,0,0-2.15-2.92A12.3,12.3,0,0,0,358,184c-2,.13-3.2,1.05-2.69,3.44a22.07,22.07,0,0,1,.26,4.61q0,68.86,0,137.72Zm-45.14-4V524.94a5.6,5.6,0,0,0,.07,2.29c.47.91,1.25,2.21,2,2.31,4.88.59,9.79,1,14.7,1.22a2.53,2.53,0,0,0,2-1.45,34.9,34.9,0,0,0,1-7.38q.07-165.67,0-331.35a17.46,17.46,0,0,0,0-2.61c-.38-2.42-1.3-4.05-4.31-3.85-3.85.26-7.73.06-11.59.07s-3.91.11-3.91,3.89Zm-45.24,1.05V526.91c0,3.82.42,4.2,3.8,3.85,3.74-.38,7.49-.66,11.24-1,4.28-.42,4.29-.45,4.3-4.66q.24-89,.48-178,.12-72.93,0-145.86c0-4.25,0-8.5,0-12.75,0-3.64-.65-4.25-4.19-4.27s-7.15,0-10.73,0c-4.55,0-4.85.27-4.91,4.94,0,.77,0,1.55,0,2.32Zm94.53,206.69c-13.44-4.5-27.12-8-41.14-8.81s-28.33-.24-42.51-.15c-8.09,0-37.31,6.75-40.73,9.22C276.84,577,318.27,577.11,359.68,564.54Z"/></svg>